<?xml version="1.0" standalone="no"?>
<!DOCTYPE svg PUBLIC "-//W3C//DTD SVG 20010904//EN"
 "http://www.w3.org/TR/2001/REC-SVG-20010904/DTD/svg10.dtd">
<svg version="1.0" xmlns="http://www.w3.org/2000/svg"
 width="500.000000pt" height="500.000000pt" viewBox="0 0 500.000000 500.000000"
 preserveAspectRatio="xMidYMid meet">

<g transform="translate(0.000000,500.000000) scale(0.100000,-0.100000)"
fill="#000000" stroke="none">
<path d="M2574 4203 c4 -32 14 -121 22 -198 9 -84 19 -142 27 -147 31 -20 47
-5 103 90 31 53 69 117 85 141 l27 44 6 -44 c24 -192 36 -282 38 -285 2 -1 14
-4 27 -6 26 -3 25 -6 139 192 30 52 63 110 74 128 l20 32 -29 0 c-25 0 -35
-12 -104 -132 -42 -73 -81 -134 -86 -135 -6 -2 -13 29 -17 74 -11 133 -28 238
-40 245 -30 20 -30 20 -150 -184 -25 -42 -50 -79 -55 -82 -4 -3 -12 32 -15 77
-4 45 -13 118 -19 162 -11 73 -14 80 -36 83 -24 4 -24 3 -17 -55z"/>
<path d="M1997 4069 c-10 -6 -27 -24 -37 -41 -17 -29 -18 -29 -25 -8 -4 14
-12 19 -22 16 -8 -3 -19 -6 -24 -6 -5 0 7 -44 27 -97 19 -54 42 -117 50 -140
14 -39 17 -41 39 -31 l24 11 -26 66 c-14 36 -28 83 -31 104 -4 33 0 42 30 70
19 18 32 39 30 50 -4 20 -10 21 -35 6z"/>
<path d="M3195 3946 c-47 -21 -83 -60 -95 -105 -26 -99 48 -191 156 -191 27 0
34 4 34 20 0 14 -7 20 -24 20 -41 0 -95 29 -111 60 -15 29 -20 72 -9 82 3 3
51 -21 106 -53 56 -32 105 -56 109 -53 15 9 31 76 25 109 -16 83 -119 143
-191 111z m116 -65 c21 -22 29 -39 29 -65 0 -20 -5 -36 -11 -36 -8 0 -139 72
-159 88 -3 2 6 12 19 23 36 29 87 25 122 -10z"/>
<path d="M1665 3916 c-82 -49 -96 -147 -31 -221 38 -45 84 -57 149 -40 72 18
141 94 106 116 -22 14 -29 11 -39 -16 -21 -55 -115 -83 -160 -47 l-22 18 38
26 c22 14 67 42 102 63 60 35 62 38 49 59 -23 35 -77 66 -116 66 -20 0 -54
-11 -76 -24z m126 -35 c13 -11 22 -21 19 -24 -17 -17 -159 -94 -164 -90 -3 4
-6 18 -6 32 1 79 93 129 151 82z"/>
<path d="M2284 3896 c-10 -25 0 -51 20 -54 27 -6 48 25 35 49 -12 22 -47 25
-55 5z"/>
<path d="M3499 3779 c-52 -56 -113 -122 -137 -147 -38 -41 -41 -47 -27 -61 12
-12 18 -12 27 -3 18 18 28 15 28 -8 0 -61 68 -120 139 -120 56 0 96 22 126 70
56 89 8 197 -98 219 l-32 7 30 31 c76 77 79 82 65 98 -7 8 -16 15 -19 15 -4 0
-50 -46 -102 -101z m111 -126 c42 -53 12 -141 -55 -163 -89 -29 -165 81 -109
157 42 57 122 59 164 6z"/>
<path d="M1392 3710 c-29 -20 -45 -42 -53 -70 -13 -42 -18 -47 -35 -30 -8 8
-15 6 -24 -5 -14 -17 -8 -24 172 -209 75 -78 88 -88 102 -77 23 19 21 23 -29
72 -51 50 -54 59 -22 59 65 0 136 95 122 163 -24 111 -145 161 -233 97z m147
-46 c41 -35 50 -82 22 -127 -41 -67 -108 -71 -161 -11 -41 47 -41 95 -1 135
39 39 96 40 140 3z"/>
<path d="M1190 3449 c-98 -39 -129 -172 -57 -247 95 -99 257 -31 257 108 0 48
-13 77 -48 105 -58 46 -98 55 -152 34z m100 -55 c109 -65 44 -223 -75 -184
-44 14 -75 54 -75 94 1 85 79 132 150 90z"/>
<path d="M3808 3327 l-168 -82 44 -91 c48 -100 79 -136 145 -166 72 -33 167
-2 221 74 45 62 42 125 -13 247 -23 52 -47 96 -52 97 -6 1 -85 -34 -177 -79z
m219 -102 c34 -95 -35 -195 -135 -195 -73 0 -111 30 -161 127 -11 23 -21 47
-21 53 0 5 57 39 127 74 l128 64 23 -42 c14 -22 31 -59 39 -81z"/>
<path d="M885 3189 c-4 -11 -5 -22 -3 -24 4 -4 207 -91 297 -127 58 -23 76
-26 82 -16 17 25 8 33 -68 65 -43 18 -127 52 -187 77 -60 26 -111 46 -112 46
-1 0 -6 -9 -9 -21z"/>
<path d="M985 2990 c-56 -23 -89 -98 -74 -169 15 -74 107 -123 189 -101 70 19
124 122 100 194 -8 26 -17 36 -28 34 -14 -3 -16 -14 -14 -61 4 -55 2 -59 -33
-92 -34 -33 -75 -47 -75 -26 0 6 11 56 25 113 14 57 25 106 25 111 0 10 -90 8
-115 -3z m65 -46 c0 -26 -32 -159 -40 -168 -5 -5 -20 3 -34 17 -38 38 -36 98
3 138 32 31 71 39 71 13z"/>
<path d="M3892 2912 c-46 -25 -72 -72 -72 -130 0 -52 35 -125 62 -130 26 -5
28 24 2 59 -35 48 -33 102 7 141 39 39 41 35 65 -99 l19 -105 34 6 c82 13 124
111 87 201 -29 68 -129 96 -204 57z m121 -33 c60 -33 77 -110 32 -154 -13 -14
-28 -25 -34 -25 -9 0 -27 67 -38 148 -6 45 1 51 40 31z"/>
<path d="M870 2677 c0 -21 16 -31 116 -77 l116 -54 -53 -23 c-29 -13 -83 -35
-121 -50 -57 -22 -68 -31 -68 -50 0 -13 3 -23 8 -23 4 1 70 27 147 58 133 55
140 60 140 86 0 26 -9 32 -139 92 -76 35 -141 64 -143 64 -1 0 -3 -11 -3 -23z"/>
<path d="M3988 2563 c-133 -54 -138 -57 -138 -85 0 -31 -8 -26 218 -129 l63
-29 -3 27 c-3 23 -17 33 -115 77 -66 30 -107 54 -100 58 7 4 60 26 120 49 93
37 107 45 107 66 0 13 -3 23 -7 23 -5 -1 -70 -26 -145 -57z"/>
<path d="M973 2361 c-23 -11 -49 -31 -58 -45 -44 -67 -19 -177 48 -209 107
-51 217 14 217 127 0 80 -43 153 -74 127 -12 -10 -11 -18 10 -48 30 -45 32
-101 3 -137 -22 -28 -44 -34 -52 -13 -3 7 -13 59 -23 115 -9 56 -20 102 -23
102 -3 0 -25 -9 -48 -19z m48 -132 l15 -84 -25 -3 c-18 -3 -33 5 -53 27 -32
36 -36 75 -11 111 41 61 55 51 74 -51z"/>
<path d="M3884 2291 c-30 -14 -47 -30 -63 -63 -35 -73 -22 -169 21 -153 13 5
14 11 5 34 -24 63 28 151 89 151 22 0 24 -3 18 -22 -18 -59 -51 -204 -47 -210
8 -14 84 -9 116 7 44 22 67 57 73 113 13 114 -105 193 -212 143z m165 -96 c21
-43 1 -98 -43 -119 -32 -15 -56 -20 -56 -12 0 10 21 114 31 148 10 38 11 39
32 25 12 -8 28 -27 36 -42z"/>
<path d="M1066 2039 c-52 -12 -91 -42 -121 -93 -38 -64 -33 -110 21 -232 26
-57 48 -104 50 -104 5 0 338 161 342 165 8 8 -81 181 -106 208 -49 53 -115 72
-186 56z m116 -61 c28 -10 75 -75 103 -141 l15 -37 -52 -24 c-29 -13 -87 -40
-129 -60 -42 -20 -79 -36 -81 -36 -3 0 -19 29 -37 64 -63 129 -32 208 99 249
16 6 40 1 82 -15z"/>
<path d="M3740 1991 c-9 -17 -3 -23 48 -46 31 -15 73 -33 92 -40 19 -8 78 -32
130 -53 94 -40 95 -40 106 -19 11 19 8 23 -30 40 -22 10 -57 25 -76 32 -19 7
-55 21 -80 32 -63 29 -171 73 -175 73 -3 0 -9 -9 -15 -19z"/>
<path d="M3703 1854 c-45 -19 -85 -76 -90 -127 -9 -74 38 -136 119 -158 35 -9
46 -7 86 13 61 30 84 65 89 130 5 67 -20 111 -80 138 -49 23 -80 24 -124 4z
m113 -54 c66 -42 64 -139 -5 -174 -43 -23 -62 -20 -109 14 -39 28 -42 34 -42
76 0 39 5 51 31 75 37 35 78 38 125 9z"/>
<path d="M3440 1694 c-11 -13 -5 -23 41 -70 l53 -54 -29 0 c-40 0 -90 -32
-110 -69 -54 -106 29 -228 148 -218 67 6 127 67 127 128 0 21 1 21 18 6 14
-13 21 -14 30 -5 7 7 12 16 12 22 0 10 -260 276 -271 276 -4 0 -12 -7 -19 -16z
m129 -168 c67 -35 82 -117 31 -168 -28 -28 -36 -30 -78 -25 -81 9 -122 87 -81
153 32 53 76 66 128 40z"/>
<path d="M1410 1567 c-50 -26 -90 -84 -90 -130 0 -68 61 -142 125 -149 l30 -3
-52 -56 c-29 -31 -53 -59 -53 -62 0 -4 9 -11 19 -17 17 -9 37 9 156 137 121
130 134 148 121 161 -12 13 -18 13 -31 2 -19 -15 -19 -15 -31 34 -11 46 -62
92 -114 101 -26 5 -46 0 -80 -18z m131 -53 c26 -23 42 -70 35 -100 -4 -15 -20
-39 -36 -55 -41 -42 -101 -41 -141 2 -35 37 -38 78 -9 125 33 53 108 67 151
28z"/>
<path d="M3215 1368 c-45 -16 -84 -46 -100 -78 -19 -37 -19 -37 6 -43 15 -4
22 1 29 19 20 53 111 81 158 48 22 -15 29 -34 13 -34 -5 0 -50 -25 -100 -56
l-92 -56 24 -32 c90 -117 280 -27 253 119 -8 43 -50 94 -93 111 -38 16 -57 16
-98 2z m145 -144 c0 -46 -14 -70 -51 -90 -35 -18 -79 -12 -103 14 -14 17 -10
21 62 64 42 25 80 47 85 47 4 1 7 -15 7 -35z"/>
<path d="M1710 1350 c0 -16 7 -20 30 -20 38 0 84 -23 104 -52 14 -20 23 -88
11 -88 -9 0 -62 25 -98 48 -94 57 -110 64 -118 50 -45 -69 -20 -161 53 -199
45 -23 89 -24 134 -3 54 26 79 69 79 136 0 50 -4 61 -30 89 -36 38 -82 59
-130 59 -28 0 -35 -4 -35 -20z m46 -151 c38 -23 71 -44 74 -46 10 -10 -43 -43
-69 -43 -27 0 -67 21 -88 48 -17 21 -17 82 0 82 7 0 44 -19 83 -41z"/>
<path d="M2998 1263 c-24 -6 -23 -18 8 -94 32 -79 33 -123 3 -155 -12 -13 -29
-24 -36 -24 -10 0 -12 -7 -7 -22 3 -13 8 -25 10 -27 7 -8 59 35 69 57 12 27
21 28 28 3 3 -14 11 -18 26 -14 25 6 26 2 -30 152 -21 58 -39 111 -39 118 0
13 -3 14 -32 6z"/>
<path d="M2050 1193 c-8 -15 -28 -50 -45 -78 -17 -27 -37 -61 -44 -75 -8 -14
-32 -55 -53 -92 -21 -37 -38 -70 -38 -73 0 -3 10 -5 23 -5 22 0 30 9 69 79 11
20 43 74 72 121 l51 85 6 -45 c4 -25 13 -98 20 -163 12 -112 14 -119 37 -128
14 -5 26 -8 27 -7 1 2 34 57 73 123 107 182 96 181 116 9 20 -163 27 -184 57
-184 17 0 20 5 15 28 -10 45 -36 274 -36 312 0 44 -8 57 -40 65 -23 5 -30 -2
-86 -97 -34 -57 -70 -118 -80 -135 -10 -18 -21 -33 -25 -33 -4 0 -10 30 -14
68 -4 37 -12 108 -19 157 l-11 90 -31 3 c-24 2 -33 -2 -44 -25z"/>
<path d="M2664 1166 c-11 -29 0 -51 26 -51 21 0 25 5 25 30 0 24 -5 31 -23 33
-13 2 -24 -3 -28 -12z"/>
</g>
</svg>
