<?xml version="1.0" standalone="no"?>
<!DOCTYPE svg PUBLIC "-//W3C//DTD SVG 20010904//EN"
 "http://www.w3.org/TR/2001/REC-SVG-20010904/DTD/svg10.dtd">
<svg version="1.0" xmlns="http://www.w3.org/2000/svg"
 width="348.000000pt" height="138.000000pt" viewBox="0 0 348.000000 138.000000"
 preserveAspectRatio="xMidYMid meet">

<g transform="translate(0.000000,138.000000) scale(0.100000,-0.100000)"
fill="#000000" stroke="none">
<path d="M980 1283 c-36 -9 -66 -16 -68 -18 -3 -3 179 -869 185 -874 4 -5 173
26 179 32 3 2 -37 200 -88 440 l-92 437 -25 -1 c-15 -1 -55 -8 -91 -16z"/>
<path d="M1537 1096 c-134 -56 -201 -144 -214 -280 -18 -195 121 -349 327
-363 157 -11 286 56 350 181 32 63 35 76 35 155 0 74 -4 94 -28 142 -32 67
-99 132 -165 162 -35 16 -72 22 -147 24 -88 3 -107 1 -158 -21z m206 -140 c96
-39 134 -179 77 -274 -30 -48 -75 -72 -140 -72 -92 0 -150 52 -165 145 -21
142 105 253 228 201z"/>
<path d="M466 1085 c-146 -40 -271 -140 -328 -262 -86 -183 -19 -426 150 -540
80 -54 145 -73 248 -73 143 0 275 58 372 164 40 43 81 115 82 142 0 11 -147
71 -154 63 -2 -2 -13 -22 -24 -44 -103 -203 -395 -202 -484 2 -37 82 -43 132
-24 195 45 155 223 237 377 174 12 -6 23 10 49 70 32 72 33 77 16 90 -46 33
-192 43 -280 19z"/>
<path d="M2268 1050 c-83 -25 -135 -86 -145 -168 -11 -99 41 -155 201 -217 51
-20 102 -43 114 -51 27 -19 28 -45 2 -69 -38 -34 -180 0 -277 66 -50 35 -39
40 -103 -48 l-31 -43 60 -38 c94 -61 186 -87 311 -87 96 0 109 2 150 27 61 35
90 88 90 163 0 56 -2 60 -47 105 -38 37 -71 56 -156 89 -59 24 -114 52 -121
63 -21 30 -8 57 33 69 47 14 143 -9 211 -49 25 -15 48 -27 52 -27 4 0 25 25
48 55 l41 54 -23 18 c-39 30 -127 68 -192 83 -66 16 -174 18 -218 5z"/>
<path d="M2907 836 c-178 -66 -273 -286 -193 -450 71 -146 272 -253 421 -225
27 5 53 13 58 18 6 6 1 35 -12 73 l-22 65 -55 -5 c-65 -5 -130 16 -179 60 -38
33 -70 106 -61 136 6 19 23 13 226 -80 246 -113 237 -112 267 -25 27 81 24
180 -10 249 -33 68 -100 131 -175 166 -69 32 -202 41 -265 18z m224 -159 c50
-34 79 -82 79 -133 0 -24 -2 -44 -5 -44 -3 0 -56 23 -118 51 -61 28 -127 58
-145 66 -29 12 -32 16 -20 30 46 56 148 71 209 30z"/>
</g>
</svg>
