<?xml version="1.0" standalone="no"?>
<!DOCTYPE svg PUBLIC "-//W3C//DTD SVG 20010904//EN"
 "http://www.w3.org/TR/2001/REC-SVG-20010904/DTD/svg10.dtd">
<svg version="1.0" xmlns="http://www.w3.org/2000/svg"
 width="719.000000pt" height="316.000000pt" viewBox="0 0 719.000000 316.000000"
 preserveAspectRatio="xMidYMid meet">

<g transform="translate(0.000000,316.000000) scale(0.100000,-0.100000)"
fill="#000000" stroke="none">
<path d="M1541 2801 l-133 -86 2 -155 c1 -85 7 -360 14 -610 7 -250 11 -457
10 -459 -2 -2 -250 122 -551 274 l-549 278 -124 -78 c-69 -42 -131 -82 -137
-89 -10 -9 86 -168 433 -721 245 -391 449 -714 453 -718 11 -11 306 178 305
195 -1 8 -117 198 -258 422 -141 225 -256 410 -256 412 0 2 192 -92 428 -210
l427 -213 74 46 74 46 -7 310 c-3 170 -9 391 -12 490 -4 99 -4 178 -2 175 4
-4 376 -593 542 -857 3 -5 301 188 304 196 3 9 -875 1411 -897 1432 -3 4 -66
-32 -140 -80z"/>
<path d="M4046 2183 c-86 -340 -159 -625 -162 -634 -4 -14 27 -24 178 -62 100
-25 183 -45 185 -44 1 1 40 153 88 337 47 184 96 358 109 385 51 111 126 165
240 173 133 8 242 -43 287 -135 42 -84 35 -139 -70 -547 -51 -197 -91 -359
-89 -360 5 -4 363 -94 364 -93 1 1 47 181 103 401 110 430 124 514 101 628
-47 241 -281 411 -565 411 -102 -1 -166 -13 -239 -48 -28 -13 -51 -23 -53 -22
-1 2 5 31 14 65 9 37 12 67 7 72 -7 7 -319 90 -337 90 -2 0 -74 -278 -161
-617z"/>
<path d="M3085 2774 c-11 -2 -45 -9 -75 -15 -316 -63 -540 -332 -540 -648 1
-269 132 -491 356 -600 109 -53 201 -73 344 -74 244 -1 433 65 568 199 34 34
62 67 62 72 0 9 -177 168 -208 186 -8 5 -30 -8 -60 -34 -192 -170 -513 -156
-631 28 -17 27 -31 54 -31 60 0 14 -6 14 500 72 239 28 446 53 458 56 23 5 24
7 17 77 -4 40 -16 105 -26 145 -56 220 -230 398 -449 458 -55 15 -247 27 -285
18z m229 -318 c63 -31 126 -101 146 -162 7 -19 10 -37 8 -38 -1 -1 -129 -17
-283 -35 -154 -18 -297 -35 -318 -38 l-37 -6 6 34 c24 136 97 224 220 263 76
24 188 16 258 -18z"/>
<path d="M5882 2108 c-396 -534 -419 -568 -454 -666 -30 -81 -36 -215 -13
-298 43 -159 203 -321 381 -386 46 -17 82 -22 165 -22 l107 -1 -32 -43 c-61
-84 -59 -76 -23 -102 17 -13 82 -61 144 -107 l112 -82 381 516 c210 284 384
522 386 528 5 13 2 15 -178 148 l-117 86 -193 -262 c-106 -144 -215 -286 -243
-316 -133 -141 -302 -146 -436 -12 -88 89 -101 179 -40 294 15 28 123 181 239
339 117 157 212 289 212 292 0 3 -34 30 -75 61 -41 30 -109 80 -150 110 l-75
56 -98 -133z"/>
</g>
</svg>
